<svg
                      width="25"
                      height="30"
                      viewBox="0 0 25 30"
                      fill="none"
                      xmlns="http://www.w3.org/2000/svg"
                    >
                      <path
                        d="M12.4987 8.62933C11.3307 8.62933 9.52269 7.30133 7.61869 7.34933C5.10669 7.38133 2.80269 8.80533 1.50669 11.0613C-1.10131 15.5893 0.834688 22.2773 3.37869 25.9573C4.62669 27.7493 6.09869 29.7653 8.05069 29.7013C9.92269 29.6213 10.6267 28.4853 12.8987 28.4853C15.1547 28.4853 15.7947 29.7013 17.7787 29.6533C19.7947 29.6213 21.0747 27.8293 22.3067 26.0213C23.7307 23.9413 24.3227 21.9253 24.3547 21.8133C24.3067 21.7973 20.4347 20.3093 20.3867 15.8293C20.3547 12.0853 23.4427 10.2933 23.5867 10.2133C21.8267 7.63733 19.1227 7.34933 18.1787 7.28533C15.7147 7.09333 13.6507 8.62933 12.4987 8.62933ZM16.6587 4.85333C17.6987 3.60533 18.3867 1.86133 18.1947 0.133333C16.7067 0.197333 14.9147 1.12533 13.8427 2.37333C12.8827 3.47733 12.0507 5.25333 12.2747 6.94933C13.9227 7.07733 15.6187 6.10133 16.6587 4.85333Z"
                        fill="#D7D7D7"
                      />
                    </svg>