<svg width="full" height="full" viewBox="0 0 54 52" fill="none" xmlns="http://www.w3.org/2000/svg">
<g clip-path="url(#clip0_97_1499)">
<path d="M27.0649 51.9998C41.6449 51.9998 53.4644 40.3592 53.4644 25.9999C53.4644 11.6405 41.6449 0 27.0649 0C12.4848 0 0.665283 11.6405 0.665283 25.9999C0.665283 40.3592 12.4848 51.9998 27.0649 51.9998Z" fill="url(#paint0_linear_97_1499)"/>
<path d="M38.1052 11.1174H16.028C13.779 11.1174 11.9557 12.913 11.9557 15.1281V36.871C11.9557 39.0862 13.7789 40.8817 16.028 40.8817H26.9162L26.9351 30.2459H24.1291C23.7644 30.2459 23.4685 29.9555 23.4672 29.5963L23.4535 26.1677C23.4521 25.8069 23.7492 25.5133 24.1156 25.5133H26.9166V22.2005C26.9166 18.3562 29.3006 16.2629 32.7827 16.2629H35.6402C36.0056 16.2629 36.3023 16.5548 36.3023 16.9149V19.8057C36.3023 20.1658 36.0059 20.4577 35.6406 20.4577L33.8869 20.4587C31.9933 20.4587 31.6264 21.3448 31.6264 22.6456V25.5137H35.7875C36.1843 25.5137 36.4918 25.8547 36.4449 26.2422L36.0323 29.6708C35.993 29.999 35.7104 30.2461 35.3749 30.2461H31.6451L31.6263 40.8823H38.1051C40.3541 40.8823 42.1774 39.0865 42.1774 36.8715V15.1281C42.1775 12.9132 40.3542 11.1174 38.1052 11.1174Z" fill="white"/>
<path d="M26.915 40.8816L26.9341 30.2458H26.8875V40.8816H26.915Z" fill="white"/>
</g>
<defs>
<linearGradient id="paint0_linear_97_1499" x1="27.0649" y1="0" x2="27.0649" y2="51.9998" gradientUnits="userSpaceOnUse">
<stop stop-color="#4E598F"/>
<stop offset="1" stop-color="#24306D"/>
</linearGradient>
<clipPath id="clip0_97_1499">
<rect width="52.7994" height="52" fill="white" transform="translate(0.664795)"/>
</clipPath>
</defs>
</svg>
