 <svg
                      width="24"
                      height="28"
                      viewBox="0 0 24 28"
                      fill="none"
                      xmlns="http://www.w3.org/2000/svg"
                    >
                      <path
                        d="M0.812002 0.418661L14.3893 14L0.813335 27.5813C0.571923 27.4798 0.365906 27.3092 0.22119 27.091C0.0764737 26.8727 -0.000481025 26.6165 2.26243e-06 26.3547V1.64533C0.000104461 1.38376 0.077142 1.12799 0.221524 0.909878C0.365906 0.691764 0.571254 0.520936 0.812002 0.418661ZM15.332 14.9427L18.4013 18.012L3.81867 26.456L15.332 14.9427ZM19.5973 10.6787L23.34 12.8467C23.5421 12.9639 23.7098 13.1321 23.8264 13.3345C23.9429 13.5369 24.0043 13.7664 24.0043 14C24.0043 14.2336 23.9429 14.4631 23.8264 14.6655C23.7098 14.8679 23.5421 15.0361 23.34 15.1533L19.596 17.3213L16.2747 14L19.5973 10.6787ZM3.81867 1.54399L18.4027 9.98666L15.332 13.0573L3.81867 1.54399Z"
                        fill="#D7D7D7"
                      />
                    </svg>