<svg width="17" height="15" viewBox="0 0 17 15" fill="none" xmlns="http://www.w3.org/2000/svg">
<path d="M15.6475 6.09488L3.78746 6.09488L7.41746 1.73488C7.5872 1.53066 7.66886 1.26738 7.64448 1.00296C7.6201 0.73853 7.49168 0.494619 7.28746 0.32488C7.08324 0.155142 6.81996 0.0734797 6.55554 0.0978594C6.29111 0.122239 6.0472 0.250664 5.87746 0.45488L0.877461 6.45488C0.843822 6.5026 0.81374 6.55274 0.787461 6.60488C0.787461 6.65488 0.787461 6.68488 0.717461 6.73488C0.672135 6.84954 0.648402 6.97159 0.647461 7.09488C0.648402 7.21817 0.672135 7.34022 0.717461 7.45488C0.717461 7.50488 0.717461 7.53488 0.787461 7.58488C0.81374 7.63702 0.843822 7.68716 0.877461 7.73488L5.87746 13.7349C5.97148 13.8478 6.08922 13.9385 6.22231 14.0008C6.35539 14.063 6.50055 14.0951 6.64746 14.0949C6.88111 14.0953 7.10755 14.014 7.28746 13.8649C7.38872 13.7809 7.47242 13.6778 7.53377 13.5615C7.59513 13.4451 7.63292 13.3178 7.645 13.1869C7.65707 13.0559 7.64319 12.9238 7.60415 12.7982C7.5651 12.6726 7.50166 12.5559 7.41746 12.4549L3.78746 8.09488H15.6475C15.9127 8.09488 16.167 7.98952 16.3546 7.80199C16.5421 7.61445 16.6475 7.3601 16.6475 7.09488C16.6475 6.82966 16.5421 6.57531 16.3546 6.38777C16.167 6.20024 15.9127 6.09488 15.6475 6.09488Z" fill="#AE4568"/>
</svg>
