<svg width="24" height="24" viewBox="0 0 24 24" fill="none" xmlns="http://www.w3.org/2000/svg">
<path d="M23.5895 12.085C23.595 12.0284 23.595 11.9715 23.5895 11.915C23.5698 11.7143 23.4779 11.5281 23.342 11.3923L21.6233 9.67354C21.2877 9.33791 20.7435 9.33791 20.4079 9.67354C20.0723 10.0092 20.0723 10.5533 20.4079 10.8889L20.6596 11.1406H12.8594C12.3847 11.1406 12 11.5253 12 11.9999C12 12.4746 12.3847 12.8593 12.8594 12.8593H20.6596L20.4079 13.111C20.0723 13.4467 20.0723 13.9908 20.4079 14.3264C20.7435 14.6619 21.2877 14.6619 21.6233 14.3264L23.342 12.6076C23.4829 12.4668 23.5708 12.2755 23.5895 12.085Z" fill="#D7D7D7"/>
<path d="M20.6667 16.2321C20.348 16.0478 19.94 16.1566 19.7555 16.4755C18.1891 19.1836 15.2608 21.0017 11.9146 21.0017C6.92357 21.0017 2.86305 16.9412 2.86305 11.9501C2.86305 6.95914 6.92357 2.89862 11.9146 2.89862C15.263 2.89862 18.1899 4.71838 19.7555 7.42474C19.9399 7.74358 20.348 7.85237 20.6667 7.6681C20.9855 7.48369 21.0944 7.07571 20.91 6.75691C19.1084 3.64234 15.7435 1.56487 11.9146 1.56487C6.17461 1.56487 1.5293 6.20968 1.5293 11.9501C1.5293 17.6901 6.17412 22.3354 11.9146 22.3354C15.7451 22.3354 19.1092 20.2565 20.9101 17.1433C21.0945 16.8245 20.9855 16.4166 20.6667 16.2321Z" fill="#D7D7D7" stroke="#D7D7D7" stroke-width="0.7"/>
</svg>
