<svg width="16" height="16" viewBox="0 0 16 16" fill="none" xmlns="http://www.w3.org/2000/svg">
<path d="M13.3451 6.58975L3.90239 1.21551C2.90075 0.643677 1.87955 1.26906 1.87955 2.39364V13.6129C1.87955 14.5656 2.49981 15.0001 3.0763 15.0001C3.34779 15.0001 3.62439 14.9144 3.89913 14.7473L13.3843 8.94135C13.8611 8.64845 14.1288 8.21491 14.1205 7.75158C14.1126 7.28778 13.8304 6.86402 13.3451 6.58975ZM12.7486 7.90432L3.26397 13.7088C3.20017 13.7479 3.14988 13.7675 3.11542 13.7773C3.10611 13.7428 3.09679 13.6897 3.09679 13.6129V2.39411C3.09679 2.27862 3.11775 2.22042 3.11775 2.20598C3.155 2.20831 3.22019 2.2274 3.30215 2.27397L12.7435 7.6482C12.8599 7.71479 12.8944 7.77253 12.9055 7.75996C12.8995 7.77579 12.8599 7.83493 12.7486 7.90432Z" fill="#D7D7D7" stroke="#D7D7D7" stroke-width="0.2"/>
</svg>
