<svg width="17" height="15" viewBox="0 0 17 15" fill="none" xmlns="http://www.w3.org/2000/svg">
<path d="M1.35254 6.09488L13.2125 6.09488L9.58254 1.73488C9.4128 1.53066 9.33114 1.26738 9.35552 1.00296C9.3799 0.73853 9.50832 0.494619 9.71254 0.32488C9.91676 0.155142 10.18 0.0734797 10.4445 0.0978594C10.7089 0.122239 10.9528 0.250664 11.1225 0.45488L16.1225 6.45488C16.1562 6.5026 16.1863 6.55274 16.2125 6.60488C16.2125 6.65488 16.2125 6.68488 16.2825 6.73488C16.3279 6.84954 16.3516 6.97159 16.3525 7.09488C16.3516 7.21817 16.3279 7.34022 16.2825 7.45488C16.2825 7.50488 16.2825 7.53488 16.2125 7.58488C16.1863 7.63702 16.1562 7.68716 16.1225 7.73488L11.1225 13.7349C11.0285 13.8478 10.9108 13.9385 10.7777 14.0008C10.6446 14.063 10.4994 14.0951 10.3525 14.0949C10.1189 14.0953 9.89245 14.014 9.71254 13.8649C9.61128 13.7809 9.52758 13.6778 9.46623 13.5615C9.40487 13.4451 9.36708 13.3178 9.355 13.1869C9.34293 13.0559 9.35681 12.9238 9.39585 12.7982C9.4349 12.6726 9.49834 12.5559 9.58254 12.4549L13.2125 8.09488H1.35254C1.08732 8.09488 0.832968 7.98952 0.645432 7.80199C0.457895 7.61445 0.352539 7.3601 0.352539 7.09488C0.352539 6.82966 0.457895 6.57531 0.645432 6.38777C0.832968 6.20024 1.08732 6.09488 1.35254 6.09488Z" fill="#AE4568"/>
</svg>
