<svg
                
                width="16"
                height="16"
                viewBox="0 0 16 16"
                fill="none"
                xmlns="http://www.w3.org/2000/svg"
              >
                <path
                  d="M14.7502 14.75L11.4929 11.4928M11.4929 11.4928C12.0501 10.9356 12.492 10.2741 12.7936 9.54616C13.0951 8.81819 13.2503 8.03795 13.2503 7.25C13.2503 6.46205 13.0951 5.68181 12.7936 4.95384C12.492 4.22587 12.0501 3.56442 11.4929 3.00725C10.9357 2.45009 10.2743 2.00812 9.54631 1.70658C8.81834 1.40505 8.03811 1.24985 7.25015 1.24985C6.4622 1.24985 5.68197 1.40505 4.95399 1.70658C4.22602 2.00812 3.56457 2.45009 3.0074 3.00725C1.88216 4.1325 1.25 5.65866 1.25 7.25C1.25 8.84134 1.88216 10.3675 3.0074 11.4928C4.13265 12.618 5.65881 13.2502 7.25015 13.2502C8.84149 13.2502 10.3677 12.618 11.4929 11.4928Z"
                  stroke="#D7D7D7"
                  strokeWidth="1.5"
                  strokeLinecap="round"
                  strokeLinejoin="round"
                />
              </svg>