<svg width="full" height="full" viewBox="0 0 54 52" fill="none" xmlns="http://www.w3.org/2000/svg">
<g clip-path="url(#clip0_97_1474)">
<path d="M26.9762 52C41.5564 52 53.3759 40.3594 53.3759 26C53.3759 11.6406 41.5564 0 26.9762 0C12.3961 0 0.576538 11.6406 0.576538 26C0.576538 40.3594 12.3961 52 26.9762 52Z" fill="url(#paint0_linear_97_1474)"/>
<path d="M40.1452 13.5603C41.1977 13.1559 42.2857 14.0628 42.0546 15.1518L37.3346 37.3717C37.1141 38.4135 35.8715 38.8827 35.0004 38.2524L27.8751 33.1014L24.2432 36.7537C23.605 37.3946 22.5046 37.1337 22.2308 36.2792L19.6104 28.087L12.5864 26.0438C11.6638 25.7758 11.6105 24.5118 12.5046 24.1669L40.1452 13.5603ZM36.6804 18.4907C36.9879 18.2227 36.6306 17.7501 36.2821 17.9637L21.1214 27.2238C20.8547 27.3866 20.7321 27.7071 20.8262 28.0029L22.8937 36.9445C22.9347 37.0811 23.1337 37.0618 23.1516 36.92L23.6138 30.1058C23.6315 29.9377 23.7133 29.7836 23.8414 29.6716L36.6804 18.4907Z" fill="white"/>
<path d="M36.2845 17.964C36.633 17.7504 36.9903 18.2231 36.6828 18.491L23.8439 29.6719C23.7159 29.784 23.6341 29.938 23.6163 30.1061L23.1541 36.9204C23.1363 37.0621 22.9372 37.0814 22.8963 36.9448L20.8287 28.0033C20.7345 27.7074 20.8572 27.387 21.1239 27.2242L36.2845 17.964Z" fill="#9EC2E5"/>
<path d="M22.9685 37.0377C22.6343 36.9204 22.3516 36.6577 22.2308 36.2795L19.6104 28.0873L12.5864 26.0441C11.6638 25.7761 11.6105 24.5121 12.5046 24.1672L40.1451 13.5607C40.8242 13.2998 41.5193 13.5852 41.8624 14.114C41.7984 14.0177 41.722 13.9285 41.6367 13.8496L22.8849 28.9261V29.5861L22.7818 29.5126L22.8849 33.6692V37.0028C22.9116 37.015 22.9399 37.0255 22.9684 37.0342V37.0377H22.9685Z" fill="white"/>
<path d="M27.8785 33.1015L24.2466 36.7538C24.2164 36.7836 24.1844 36.8133 24.1523 36.8396C24.1203 36.8659 24.0883 36.8887 24.0546 36.9114C24.0528 36.9132 24.0528 36.9132 24.0528 36.9132C23.9853 36.9569 23.916 36.9937 23.843 37.0235C23.8057 37.0375 23.7701 37.0515 23.7328 37.0602C23.5781 37.1057 23.4199 37.118 23.2635 37.1023C23.2227 37.0988 23.1817 37.0918 23.1426 37.0848C23.1373 37.0848 23.132 37.0831 23.1266 37.0814C23.0876 37.0709 23.0484 37.0603 23.0093 37.048C22.9968 37.0446 22.9844 37.041 22.972 37.034L22.8884 33.669V29.5859L27.8785 33.1015Z" fill="#D1D1D1"/>
<path d="M24.1509 36.8398C24.1184 36.8666 24.0858 36.8915 24.0515 36.9146V36.9128C24.0859 36.8897 24.1184 36.8666 24.1509 36.8398Z" fill="#DADDE0"/>
<path d="M24.0557 36.9116V36.9158C24.0557 36.9158 24.0557 36.9116 24.0515 36.9158C24.0515 36.9158 24.0515 36.9158 24.0557 36.9116Z" fill="#DADDE0"/>
<path d="M23.8402 37.0243C23.9134 36.9944 23.9829 36.9575 24.0507 36.9136C23.9829 36.9574 23.9115 36.9943 23.8402 37.0243Z" fill="#DADDE0"/>
<path d="M23.2601 37.1034C23.4166 37.1195 23.5748 37.1069 23.7294 37.0603C23.6175 37.0962 23.5019 37.1123 23.3864 37.1123C23.3508 37.1123 23.3152 37.1106 23.2815 37.1069C23.2744 37.107 23.2672 37.107 23.2601 37.1034Z" fill="#DADDE0"/>
<path d="M23.2654 37.1022C23.2725 37.1058 23.2797 37.1058 23.2869 37.1058C23.2493 37.104 23.2152 37.0985 23.1794 37.0913C23.208 37.0969 23.2367 37.1004 23.2654 37.1022Z" fill="white"/>
<path d="M23.2618 37.1035C23.2331 37.1017 23.2044 37.098 23.1759 37.0927C23.1633 37.0909 23.1508 37.0891 23.14 37.0854C23.1794 37.0927 23.2205 37.0999 23.2618 37.1035Z" fill="#DADDE0"/>
<path d="M23.0076 37.0483C23.0469 37.061 23.0864 37.0718 23.1258 37.0827C23.1097 37.0792 23.0936 37.0755 23.0775 37.0719C23.0703 37.0701 23.0631 37.0684 23.0577 37.0647C23.0415 37.061 23.0237 37.0556 23.0076 37.0483Z" fill="#DADDE0"/>
<path d="M23.0778 37.0706C23.094 37.0741 23.1103 37.0778 23.1265 37.0814C23.1103 37.0796 23.094 37.076 23.0778 37.0706Z" fill="white"/>
<path d="M23.0086 37.0484C23.025 37.0557 23.0433 37.0612 23.0597 37.0648C23.0323 37.0593 23.005 37.0502 22.9775 37.0393C22.9884 37.0429 22.9976 37.0466 23.0086 37.0484Z" fill="white"/>
<path d="M23.0106 37.0493C22.9993 37.0474 22.9897 37.0436 22.9783 37.0398C22.9764 37.0417 22.9726 37.0398 22.9707 37.0379V37.0342C22.9839 37.0417 22.9973 37.0454 23.0106 37.0493Z" fill="#DADDE0"/>
<path d="M22.8884 33.6689L22.9727 37.034C22.944 37.0253 22.9153 37.0147 22.8884 37.0025V33.6689Z" fill="#D1D1D1"/>
<path d="M22.8851 29.586V33.669L22.781 29.5125L22.8851 29.586Z" fill="#DADDE0"/>
<path d="M36.6828 18.491L23.8439 29.6719C23.7159 29.7839 23.6341 29.938 23.6163 30.1061L23.1549 36.9209C23.1372 37.0627 22.938 37.082 22.8953 36.9454L20.8287 28.0033C20.7345 27.7075 20.8572 27.387 21.1239 27.2242L36.2846 17.9641C36.6331 17.7504 36.9904 18.2231 36.6828 18.491Z" fill="#ADBCC9"/>
</g>
<defs>
<linearGradient id="paint0_linear_97_1474" x1="26.9762" y1="0" x2="26.9762" y2="52" gradientUnits="userSpaceOnUse">
<stop stop-color="#7AA5DA"/>
<stop offset="1" stop-color="#1D5AA5"/>
</linearGradient>
<clipPath id="clip0_97_1474">
<rect width="52.7994" height="52" fill="white" transform="translate(0.575928)"/>
</clipPath>
</defs>
</svg>
