<svg width="full" height="full" viewBox="0 0 54 52" fill="none" xmlns="http://www.w3.org/2000/svg">
<g clip-path="url(#clip0_97_1453)">
<path d="M27.0205 52C41.6007 52 53.4202 40.3594 53.4202 26C53.4202 11.6406 41.6007 0 27.0205 0C12.4404 0 0.62085 11.6406 0.62085 26C0.62085 40.3594 12.4404 52 27.0205 52Z" fill="url(#paint0_linear_97_1453)"/>
<path d="M40.9863 18.2731L40.9776 18.2387C40.2723 15.4302 37.0921 12.4167 34.1717 11.7897L34.1388 11.783C29.4151 10.8956 24.6255 10.8956 19.9029 11.783L19.8689 11.7897C16.9495 12.4167 13.7693 15.4304 13.063 18.2387L13.0551 18.2731C12.1831 22.1951 12.1831 26.1727 13.0551 30.0947L13.063 30.1291C13.7393 32.8176 16.6825 35.6929 19.494 36.4835V39.6186C19.494 40.7533 20.898 41.3106 21.6964 40.4917L24.9216 37.19C25.6212 37.2285 26.3211 37.25 27.0208 37.25C29.3985 37.25 31.7774 37.0285 34.1387 36.5849L34.1716 36.5782C37.092 35.9512 40.2722 32.9375 40.9775 30.1292L40.9862 30.0948C41.8582 26.1727 41.8582 22.1953 40.9863 18.2731ZM38.4339 29.5261C37.9629 31.3584 35.5484 33.6362 33.6299 34.0571C31.1183 34.5275 28.5867 34.7285 26.0577 34.6596C26.0074 34.6581 25.959 34.6774 25.9241 34.713C25.5651 35.0758 23.5692 37.0938 23.5692 37.0938L21.0646 39.6256C20.8814 39.8137 20.5597 39.6856 20.5597 39.4261V34.2326C20.5597 34.1468 20.4975 34.074 20.4119 34.0573C20.4114 34.0571 20.411 34.0571 20.4104 34.057C18.4919 33.6361 16.0782 31.3583 15.6064 29.526C14.8215 25.9808 14.8215 22.387 15.6064 18.8418C16.0782 17.0095 18.4919 14.7317 20.4104 14.3108C24.7969 13.4892 29.2444 13.4892 33.63 14.3108C35.5494 14.7317 37.963 17.0095 38.434 18.8418C39.2197 22.3871 39.2197 25.981 38.4339 29.5261Z" fill="white"/>
<path d="M31.1937 31.9236C30.8987 31.8353 30.6177 31.7761 30.3565 31.6696C27.6515 30.5642 25.1621 29.1383 23.1902 26.9526C22.0689 25.7097 21.1912 24.3064 20.4493 22.8213C20.0975 22.1171 19.801 21.3853 19.4987 20.6581C19.2232 19.9951 19.6291 19.3102 20.0564 18.8105C20.4575 18.3416 20.9736 17.9829 21.5325 17.7183C21.9687 17.5119 22.399 17.631 22.7176 17.9951C23.4063 18.7824 24.0391 19.6099 24.5512 20.5226C24.8662 21.0839 24.7798 21.7701 24.2088 22.152C24.07 22.2449 23.9436 22.3539 23.8143 22.4587C23.7009 22.5507 23.5943 22.6435 23.5165 22.7679C23.3745 22.9955 23.3677 23.2641 23.4591 23.5116C24.1631 25.4171 25.3498 26.8989 27.2972 27.697C27.6089 27.8247 27.9218 27.9733 28.2808 27.9322C28.882 27.863 29.0767 27.2134 29.4981 26.8741C29.9099 26.5425 30.4362 26.5381 30.8798 26.8146C31.3235 27.0912 31.7535 27.388 32.1811 27.6881C32.6008 27.9826 33.0186 28.2706 33.4056 28.6064C33.7779 28.9293 33.906 29.3528 33.6964 29.7909C33.3128 30.5933 32.7543 31.2607 31.9491 31.6868C31.7217 31.8069 31.45 31.8458 31.1937 31.9236C31.45 31.8458 30.8987 31.8353 31.1937 31.9236Z" fill="white"/>
<path d="M27.0287 16.8004C30.5668 16.8982 33.4729 19.2106 34.0957 22.6556C34.2018 23.2427 34.2396 23.8427 34.2868 24.4386C34.3067 24.6891 34.1625 24.9272 33.888 24.9305C33.6044 24.9339 33.4769 24.7001 33.4583 24.4497C33.4219 23.9539 33.3966 23.4557 33.3272 22.9642C32.961 20.3683 30.8594 18.2208 28.2359 17.76C27.841 17.6906 27.4372 17.6725 27.0372 17.6311C26.7844 17.605 26.4534 17.59 26.3974 17.2804C26.3505 17.0209 26.5728 16.8144 26.8237 16.8011C26.8917 16.7971 26.9603 16.8002 27.0287 16.8004C30.567 16.8982 26.9603 16.8002 27.0287 16.8004Z" fill="white"/>
<path d="M32.4042 23.6657C32.3983 23.7093 32.3954 23.8116 32.3694 23.9078C32.2755 24.2576 31.7368 24.3014 31.613 23.9485C31.5761 23.8438 31.5707 23.7245 31.5705 23.6118C31.5692 22.8738 31.4064 22.1365 31.0284 21.4943C30.64 20.8343 30.0464 20.2796 29.3504 19.9438C28.9295 19.7408 28.4744 19.6146 28.013 19.5395C27.8114 19.5066 27.6076 19.4868 27.405 19.459C27.1595 19.4254 27.0283 19.2713 27.04 19.033C27.0509 18.8098 27.2166 18.649 27.4637 18.6629C28.2756 18.7082 29.0599 18.8813 29.7819 19.2577C31.2498 20.0234 32.0884 21.2318 32.3332 22.8455C32.3442 22.9187 32.3619 22.991 32.3676 23.0644C32.3814 23.2453 32.3902 23.4266 32.4042 23.6657C32.3983 23.7091 32.3902 23.4266 32.4042 23.6657Z" fill="white"/>
<path d="M30.2031 23.5812C29.9072 23.5865 29.7488 23.425 29.7181 23.1579C29.697 22.9716 29.6801 22.7827 29.6349 22.6013C29.546 22.2441 29.3533 21.9132 29.0482 21.6944C28.9043 21.5911 28.741 21.5158 28.5702 21.4671C28.3531 21.4052 28.1275 21.4223 27.911 21.3701C27.6758 21.3133 27.5456 21.1256 27.5827 20.9084C27.6163 20.7105 27.8116 20.5562 28.0311 20.5719C29.4029 20.6694 30.3833 21.3679 30.5232 22.9583C30.5332 23.0705 30.5448 23.1891 30.5195 23.2966C30.476 23.4801 30.3378 23.5723 30.2031 23.5812C30.3378 23.5723 29.9071 23.5864 30.2031 23.5812Z" fill="white"/>
<path d="M31.1937 31.9257C30.8977 31.8349 31.451 31.8457 31.1937 31.9257V31.9257Z" fill="white"/>
<path d="M27.0379 16.8018C27.0342 16.8018 27.0307 16.8014 27.027 16.8014C27.0234 16.8011 27.028 16.8014 27.0379 16.8018Z" fill="white"/>
<path d="M27.0258 16.8008C27.0287 16.8008 27.0316 16.8011 27.0346 16.8011C27.231 16.8082 30.4245 16.8969 27.0258 16.8008Z" fill="white"/>
<path d="M32.1019 18.874L31.4794 19.4175C32.4577 20.3549 33.1323 21.5973 33.3252 22.9646C33.3945 23.4563 33.42 23.9543 33.4564 24.4501C33.4748 24.7007 33.6023 24.9344 33.8861 24.9311C34.1607 24.9278 34.3048 24.6898 34.2849 24.4391C34.2375 23.8434 34.1999 23.2431 34.0938 22.6562C33.8212 21.1482 33.111 19.8573 32.1019 18.874Z" fill="#D1D1D1"/>
<path d="M32.3325 22.8453C32.1542 21.6694 31.6589 20.7098 30.8361 19.9788L30.2153 20.5206C30.5364 20.8012 30.8141 21.1308 31.0279 21.4943C31.4059 22.1365 31.5687 22.8738 31.57 23.6118C31.5702 23.7245 31.5756 23.8437 31.6125 23.9486C31.7365 24.3018 32.275 24.258 32.3689 23.908C32.3949 23.8115 32.3978 23.7093 32.4037 23.6659C32.3895 23.4269 32.3978 23.7095 32.4037 23.6659C32.3895 23.4269 32.3808 23.2455 32.3669 23.0643C32.3614 22.9907 32.3436 22.9184 32.3325 22.8453Z" fill="#D1D1D1"/>
<path d="M32.408 23.6677C32.3938 23.4247 32.4021 23.7118 32.408 23.6677V23.6677Z" fill="white"/>
<path d="M30.2081 23.5824C30.2128 23.5821 30.2173 23.5796 30.2219 23.5791C30.2091 23.5791 30.1895 23.5794 30.1693 23.5802C30.1824 23.5805 30.1943 23.5825 30.2081 23.5824Z" fill="white"/>
<path d="M30.2083 23.5823C30.1949 23.5825 30.1831 23.5805 30.1702 23.5801C30.1057 23.5819 30.0391 23.5853 30.2083 23.5823Z" fill="white"/>
<path d="M30.2227 23.5791C30.2179 23.5796 30.2133 23.5821 30.2087 23.5824C30.2447 23.58 30.2416 23.5791 30.2227 23.5791Z" fill="white"/>
<path d="M29.5803 21.0769L28.9484 21.6286C28.9832 21.6494 29.0174 21.6711 29.0505 21.6948C29.3555 21.9137 29.5482 22.2446 29.6371 22.6018C29.6823 22.7832 29.699 22.9719 29.7203 23.1583C29.7495 23.4136 29.8967 23.5705 30.1675 23.5796C30.1872 23.5791 30.2066 23.5787 30.2188 23.5786C30.3492 23.5644 30.4799 23.4744 30.5216 23.2969C30.5469 23.1895 30.5353 23.0708 30.5253 22.9586C30.4468 22.0694 30.1054 21.4593 29.5803 21.0769Z" fill="#D1D1D1"/>
</g>
<defs>
<linearGradient id="paint0_linear_97_1453" x1="27.0205" y1="0" x2="27.0205" y2="52" gradientUnits="userSpaceOnUse">
<stop stop-color="#6F3FAA"/>
<stop offset="1" stop-color="#5B14B1"/>
</linearGradient>
<clipPath id="clip0_97_1453">
<rect width="52.7994" height="52" fill="white" transform="translate(0.62085)"/>
</clipPath>
</defs>
</svg>
