<svg width="full" height="full" viewBox="0 0 54 52" fill="none" xmlns="http://www.w3.org/2000/svg">
<g clip-path="url(#clip0_18_413)">
<path d="M26.9345 52C41.5146 52 53.3342 40.3594 53.3342 26C53.3342 11.6406 41.5146 0 26.9345 0C12.3544 0 0.534821 11.6406 0.534821 26C0.534821 40.3594 12.3544 52 26.9345 52Z" fill="url(#paint0_linear_18_413)"/>
<path d="M35.7688 15.4714H18.1039C14.6381 15.4714 11.8286 18.2385 11.8286 21.6517V30.3487C11.8286 33.762 14.6382 36.529 18.1039 36.529H35.7688C39.2346 36.529 42.0441 33.7619 42.0441 30.3487V21.6517C42.0441 18.2385 39.2345 15.4714 35.7688 15.4714ZM31.5247 26.4233L23.2625 30.3042C23.0422 30.4077 22.7878 30.2498 22.7878 30.0096V22.0051C22.7878 21.7613 23.0489 21.6034 23.2694 21.7136L31.5317 25.8371C31.7777 25.9597 31.7733 26.3067 31.5247 26.4233Z" fill="white"/>
</g>
<defs>
<linearGradient id="paint0_linear_18_413" x1="26.9345" y1="0" x2="26.9345" y2="52" gradientUnits="userSpaceOnUse">
<stop stop-color="#F32313"/>
<stop offset="1" stop-color="#A01F15"/>
</linearGradient>
<clipPath id="clip0_18_413">
<rect width="52.7994" height="52" fill="white" transform="translate(0.535751)"/>
</clipPath>
</defs>
</svg>
