<svg width="32" height="30" viewBox="0 0 32 30" fill="none" xmlns="http://www.w3.org/2000/svg">
<path d="M27.1053 0.117432H5.02811C2.7791 0.117432 0.955772 1.91305 0.955772 4.12812V25.871C0.955772 28.0862 2.77899 29.8817 5.02811 29.8817H15.9163L15.9352 19.2459H13.1292C12.7645 19.2459 12.4686 18.9555 12.4673 18.5963L12.4536 15.1677C12.4522 14.8069 12.7493 14.5133 13.1157 14.5133H15.9167V11.2005C15.9167 7.35617 18.3007 5.26287 21.7828 5.26287H24.6403C25.0057 5.26287 25.3024 5.55476 25.3024 5.9149V8.80566C25.3024 9.1658 25.006 9.45769 24.6407 9.45769L22.887 9.45871C20.9934 9.45871 20.6264 10.3448 20.6264 11.6456V14.5137H24.7876C25.1844 14.5137 25.4919 14.8547 25.445 15.2422L25.0324 18.6708C24.9931 18.999 24.7104 19.2461 24.375 19.2461H20.6452L20.6263 29.8823H27.1052C29.3542 29.8823 31.1775 28.0865 31.1775 25.8715V4.12812C31.1776 1.91315 29.3543 0.117432 27.1053 0.117432Z" fill="white"/>
</svg>
