<svg width="32" height="26" viewBox="0 0 32 26" fill="none" xmlns="http://www.w3.org/2000/svg">
<path d="M29.1452 0.560318C30.1977 0.155896 31.2857 1.06285 31.0546 2.1518L26.3346 24.3717C26.1141 25.4135 24.8715 25.8827 24.0004 25.2524L16.8751 20.1014L13.2432 23.7537C12.605 24.3946 11.5046 24.1337 11.2308 23.2792L8.6104 15.087L1.58643 13.0438C0.663783 12.7758 0.610468 11.5118 1.50465 11.1669L29.1452 0.560318ZM25.6804 5.49067C25.9879 5.22275 25.6306 4.75008 25.2821 4.96366L10.1214 14.2238C9.85469 14.3866 9.73207 14.7071 9.82623 15.0029L11.8938 23.9445C11.9347 24.0811 12.1337 24.0618 12.1516 23.92L12.6138 17.1058C12.6315 16.9377 12.7133 16.7836 12.8414 16.6716L25.6804 5.49067Z" fill="white"/>
</svg>
