<svg width="30" height="30" viewBox="0 0 30 30" fill="none" xmlns="http://www.w3.org/2000/svg">
<path d="M28.9864 7.27307L28.9777 7.23874C28.2723 4.43023 25.0922 1.41667 22.1717 0.789724L22.1388 0.783022C17.4151 -0.104432 12.6256 -0.104432 7.90291 0.783022L7.86898 0.789724C4.94955 1.41667 1.76932 4.43043 1.06302 7.23874L1.05518 7.27307C0.183169 11.1951 0.183169 15.1727 1.05518 19.0947L1.06302 19.1291C1.73931 21.8176 4.68256 24.6929 7.49403 25.4835V28.6186C7.49403 29.7533 8.89806 30.3106 9.69644 29.4917L12.9216 26.19C13.6212 26.2285 14.3211 26.25 15.0208 26.25C17.3985 26.25 19.7774 26.0285 22.1387 25.5849L22.1716 25.5782C25.0921 24.9512 28.2722 21.9375 28.9776 19.1292L28.9863 19.0948C29.8583 15.1727 29.8583 11.1953 28.9864 7.27307ZM26.4339 18.5261C25.963 20.3584 23.5484 22.6362 21.6299 23.0571C19.1183 23.5275 16.5868 23.7285 14.0577 23.6596C14.0074 23.6581 13.9591 23.6774 13.9241 23.713C13.5651 24.0758 11.5693 26.0938 11.5693 26.0938L9.0646 28.6256C8.88145 28.8137 8.55971 28.6856 8.55971 28.4261V23.2326C8.55971 23.1468 8.49752 23.074 8.41193 23.0573C8.41141 23.0571 8.411 23.0571 8.41049 23.057C6.49197 22.6361 4.07826 20.3583 3.60647 18.526C2.82159 14.9808 2.82159 11.387 3.60647 7.84182C4.07826 6.00953 6.49197 3.73168 8.41049 3.31081C12.797 2.48917 17.2445 2.48917 21.63 3.31081C23.5495 3.73168 25.9631 6.00953 26.434 7.84182C27.2197 11.3871 27.2197 14.981 26.4339 18.5261Z" fill="white"/>
<path d="M19.1937 20.9236C18.8988 20.8353 18.6178 20.7761 18.3566 20.6696C15.6515 19.5642 13.1621 18.1383 11.1903 15.9526C10.0689 14.7097 9.19122 13.3064 8.44935 11.8213C8.09749 11.1171 7.80101 10.3853 7.49875 9.65815C7.22321 8.99515 7.6291 8.31021 8.05645 7.81052C8.4575 7.34161 8.97363 6.98289 9.53256 6.71832C9.96878 6.51195 10.399 6.63098 10.7177 6.99508C11.4063 7.78239 12.0391 8.60992 12.5512 9.52256C12.8662 10.0839 12.7798 10.7701 12.2088 11.152C12.07 11.2449 11.9436 11.3539 11.8144 11.4587C11.7009 11.5507 11.5943 11.6435 11.5166 11.7679C11.3746 11.9955 11.3678 12.2641 11.4591 12.5116C12.1631 14.4171 13.3498 15.8989 15.2973 16.697C15.6089 16.8247 15.9218 16.9733 16.2809 16.9322C16.8821 16.863 17.0768 16.2134 17.4982 15.8741C17.9099 15.5425 18.4363 15.5381 18.8798 15.8146C19.3235 16.0912 19.7536 16.388 20.1811 16.6881C20.6008 16.9826 21.0186 17.2706 21.4056 17.6064C21.7779 17.9293 21.9061 18.3528 21.6964 18.7909C21.3128 19.5933 20.7544 20.2607 19.9491 20.6868C19.7217 20.8069 19.4501 20.8458 19.1937 20.9236C19.4501 20.8458 18.8988 20.8353 19.1937 20.9236Z" fill="white"/>
<path d="M15.0289 5.80045C18.5669 5.89815 21.4731 8.21063 22.0958 11.6556C22.2019 12.2427 22.2397 12.8427 22.2869 13.4386C22.3068 13.6891 22.1626 13.9272 21.8881 13.9305C21.6045 13.9339 21.477 13.7001 21.4584 13.4497C21.422 12.9539 21.3967 12.4557 21.3273 11.9642C20.9611 9.36834 18.8595 7.2208 16.236 6.76001C15.8412 6.69064 15.4373 6.67247 15.0373 6.63113C14.7846 6.60503 14.4535 6.59 14.3975 6.28043C14.3506 6.02094 14.5729 5.81436 14.8238 5.80106C14.8918 5.7971 14.9604 5.80025 15.0289 5.80045C18.5671 5.89815 14.9604 5.80025 15.0289 5.80045Z" fill="white"/>
<path d="M20.4043 12.6657C20.3984 12.7093 20.3954 12.8116 20.3694 12.9078C20.2756 13.2576 19.7368 13.3014 19.613 12.9485C19.5762 12.8438 19.5707 12.7245 19.5705 12.6118C19.5693 11.8738 19.4064 11.1365 19.0285 10.4943C18.64 9.83425 18.0464 9.27962 17.3505 8.94375C16.9295 8.74083 16.4744 8.61459 16.013 8.53953C15.8114 8.50663 15.6077 8.48682 15.405 8.45899C15.1595 8.42538 15.0283 8.27131 15.0401 8.03304C15.0509 7.80981 15.2166 7.64903 15.4637 7.66295C16.2756 7.70824 17.06 7.88131 17.7819 8.2577C19.2498 9.02338 20.0884 10.2318 20.3332 11.8455C20.3442 11.9187 20.362 11.991 20.3677 12.0644C20.3815 12.2453 20.3902 12.4266 20.4043 12.6657C20.3984 12.7091 20.3902 12.4266 20.4043 12.6657Z" fill="white"/>
<path d="M18.2032 12.5812C17.9072 12.5865 17.7488 12.425 17.7182 12.1579C17.697 11.9716 17.6801 11.7827 17.635 11.6013C17.5461 11.2441 17.3533 10.9132 17.0483 10.6944C16.9043 10.5911 16.7411 10.5158 16.5702 10.4671C16.3531 10.4052 16.1275 10.4223 15.911 10.3701C15.6758 10.3133 15.5457 10.1256 15.5827 9.90838C15.6163 9.71054 15.8116 9.55616 16.0312 9.57191C17.4029 9.66941 18.3833 10.3679 18.5233 11.9583C18.5333 12.0705 18.5448 12.1891 18.5196 12.2966C18.476 12.4801 18.3379 12.5723 18.2032 12.5812C18.3379 12.5723 17.9071 12.5864 18.2032 12.5812Z" fill="white"/>
</svg>
